<mxfile host="app.diagrams.net" modified="2023-03-29T02:43:53.479Z" agent="Mozilla/5.0 (Windows NT 10.0; Win64; x64) AppleWebKit/537.36 (KHTML, like Gecko) Chrome/111.0.0.0 Safari/537.36" version="21.1.1" etag="tg0FyboledpPvz6B2B4o" type="github">
  <diagram name="Страница 1" id="kFUGheOMD68s-jXhZ-Y7">
    <mxGraphModel>
      <root>
        <mxCell id="0" />
        <mxCell id="1" parent="0" />
      </root>
    </mxGraphModel>
  </diagram>
</mxfile>
